<?xml version="1.0" standalone="no"?>
<!DOCTYPE svg PUBLIC "-//W3C//DTD SVG 20010904//EN"
 "http://www.w3.org/TR/2001/REC-SVG-20010904/DTD/svg10.dtd">
<svg version="1.0" xmlns="http://www.w3.org/2000/svg"
 width="512.000000pt" height="512.000000pt" viewBox="0 0 512.000000 512.000000"
 preserveAspectRatio="xMidYMid meet">

<g transform="translate(0.000000,512.000000) scale(0.100000,-0.100000)"
fill="#000000" stroke="none">
<path d="M2315 5109 c-800 -83 -1501 -518 -1927 -1196 -487 -774 -516 -1777
-75 -2578 200 -364 487 -676 841 -913 238 -159 600 -311 876 -366 214 -43 295
-51 530 -51 236 0 333 10 532 51 880 184 1615 842 1898 1702 92 278 125 491
125 802 0 301 -32 513 -116 775 -124 390 -330 728 -622 1024 -399 404 -893
653 -1462 737 -123 18 -478 26 -600 13z m1546 -1105 c58 -27 116 -85 143 -143
l21 -46 0 -1255 0 -1255 -21 -46 c-27 -58 -85 -116 -143 -143 l-46 -21 -1255
0 -1255 0 -46 21 c-58 27 -116 85 -143 143 -21 46 -21 47 -24 1271 -2 870 0
1240 8 1277 21 97 95 178 192 208 35 11 262 13 1283 12 l1240 -2 46 -21z"/>
<path d="M1480 2559 l0 -541 203 4 c196 3 204 4 253 30 66 35 117 92 143 162
20 53 21 75 21 349 -1 250 -3 299 -18 339 -29 81 -73 132 -142 167 l-63 31
-199 0 -198 0 0 -541z m387 321 c47 -28 53 -65 53 -328 0 -258 -6 -289 -59
-316 -19 -10 -56 -16 -101 -16 l-70 0 0 340 0 340 73 0 c54 0 80 -5 104 -20z"/>
<path d="M2276 3079 c-56 -44 -56 -40 -56 -521 0 -422 1 -445 20 -475 36 -59
55 -63 300 -63 l220 0 0 95 0 95 -175 0 -175 0 0 125 0 124 108 3 107 3 3 98
3 97 -111 0 -110 0 0 125 0 125 175 0 175 0 0 95 0 95 -229 0 c-216 0 -230 -1
-255 -21z"/>
<path d="M2884 3083 c3 -10 60 -222 126 -471 66 -250 128 -468 136 -485 67
-132 199 -143 270 -22 17 29 68 203 150 512 68 257 124 471 124 476 0 4 -47 7
-105 7 l-104 0 -10 -37 c-6 -21 -46 -177 -91 -348 -44 -170 -83 -318 -88 -328
-5 -13 -38 97 -102 345 l-95 363 -108 3 c-100 2 -108 1 -103 -15z"/>
</g>
</svg>
